
<svg id="visual" viewBox="0 0 900 600" width="900" height="600" xmlns="http://www.w3.org/2000/svg" xmlns:xlink="http://www.w3.org/1999/xlink" version="1.1"><path d="M0 121L13.7 108C27.3 95 54.7 69 82 61C109.3 53 136.7 63 163.8 69C191 75 218 77 245.2 81C272.3 85 299.7 91 327 91C354.3 91 381.7 85 409 84C436.3 83 463.7 87 491 81C518.3 75 545.7 59 573 57C600.3 55 627.7 67 654.8 79C682 91 709 103 736.2 104C763.3 105 790.7 95 818 95C845.3 95 872.7 105 886.3 110L900 115L900 0L886.3 0C872.7 0 845.3 0 818 0C790.7 0 763.3 0 736.2 0C709 0 682 0 654.8 0C627.7 0 600.3 0 573 0C545.7 0 518.3 0 491 0C463.7 0 436.3 0 409 0C381.7 0 354.3 0 327 0C299.7 0 272.3 0 245.2 0C218 0 191 0 163.8 0C136.7 0 109.3 0 82 0C54.7 0 27.3 0 13.7 0L0 0Z" fill="#6198ff"></path><path d="M0 373L13.7 352C27.3 331 54.7 289 82 272C109.3 255 136.7 263 163.8 252C191 241 218 211 245.2 213C272.3 215 299.7 249 327 265C354.3 281 381.7 279 409 271C436.3 263 463.7 249 491 249C518.3 249 545.7 263 573 259C600.3 255 627.7 233 654.8 233C682 233 709 255 736.2 246C763.3 237 790.7 197 818 185C845.3 173 872.7 189 886.3 197L900 205L900 113L886.3 108C872.7 103 845.3 93 818 93C790.7 93 763.3 103 736.2 102C709 101 682 89 654.8 77C627.7 65 600.3 53 573 55C545.7 57 518.3 73 491 79C463.7 85 436.3 81 409 82C381.7 83 354.3 89 327 89C299.7 89 272.3 83 245.2 79C218 75 191 73 163.8 67C136.7 61 109.3 51 82 59C54.7 67 27.3 93 13.7 106L0 119Z" fill="#3c80ff"></path><path d="M0 415L13.7 393C27.3 371 54.7 327 82 317C109.3 307 136.7 331 163.8 323C191 315 218 275 245.2 275C272.3 275 299.7 315 327 337C354.3 359 381.7 363 409 355C436.3 347 463.7 327 491 327C518.3 327 545.7 347 573 339C600.3 331 627.7 295 654.8 291C682 287 709 315 736.2 315C763.3 315 790.7 287 818 276C845.3 265 872.7 271 886.3 274L900 277L900 203L886.3 195C872.7 187 845.3 171 818 183C790.7 195 763.3 235 736.2 244C709 253 682 231 654.8 231C627.7 231 600.3 253 573 257C545.7 261 518.3 247 491 247C463.7 247 436.3 261 409 269C381.7 277 354.3 279 327 263C299.7 247 272.3 213 245.2 211C218 209 191 239 163.8 250C136.7 261 109.3 253 82 270C54.7 287 27.3 329 13.7 350L0 371Z" fill="#0066ff"></path><path d="M0 517L13.7 516C27.3 515 54.7 513 82 502C109.3 491 136.7 471 163.8 475C191 479 218 507 245.2 512C272.3 517 299.7 499 327 495C354.3 491 381.7 501 409 503C436.3 505 463.7 499 491 491C518.3 483 545.7 473 573 467C600.3 461 627.7 459 654.8 463C682 467 709 477 736.2 481C763.3 485 790.7 483 818 480C845.3 477 872.7 473 886.3 471L900 469L900 275L886.3 272C872.7 269 845.3 263 818 274C790.7 285 763.3 313 736.2 313C709 313 682 285 654.8 289C627.7 293 600.3 329 573 337C545.7 345 518.3 325 491 325C463.7 325 436.3 345 409 353C381.7 361 354.3 357 327 335C299.7 313 272.3 273 245.2 273C218 273 191 313 163.8 321C136.7 329 109.3 305 82 315C54.7 325 27.3 369 13.7 391L0 413Z" fill="#0059dd"></path><path d="M0 601L13.7 601C27.3 601 54.7 601 82 601C109.3 601 136.7 601 163.8 601C191 601 218 601 245.2 601C272.3 601 299.7 601 327 601C354.3 601 381.7 601 409 601C436.3 601 463.7 601 491 601C518.3 601 545.7 601 573 601C600.3 601 627.7 601 654.8 601C682 601 709 601 736.2 601C763.3 601 790.7 601 818 601C845.3 601 872.7 601 886.3 601L900 601L900 467L886.3 469C872.7 471 845.3 475 818 478C790.7 481 763.3 483 736.2 479C709 475 682 465 654.8 461C627.7 457 600.3 459 573 465C545.7 471 518.3 481 491 489C463.7 497 436.3 503 409 501C381.7 499 354.3 489 327 493C299.7 497 272.3 515 245.2 510C218 505 191 477 163.8 473C136.7 469 109.3 489 82 500C54.7 511 27.3 513 13.7 514L0 515Z" fill="#004cbb"></path></svg>